<svg width="25" height="25" viewBox="0 0 25 25" fill="none" xmlns="http://www.w3.org/2000/svg">
<path fill-rule="evenodd" clip-rule="evenodd" d="M0.433991 18.4745V18.4745C1.01265 19.0533 1.95112 19.0533 2.53059 18.4745L12.4235 8.57993L22.4688 18.6278C23.0483 19.2074 23.9867 19.2074 24.5654 18.6278V18.6278C25.1449 18.0491 25.1449 17.1104 24.5654 16.5309L13.4718 5.43448C13.1939 5.15658 12.8161 5 12.4235 5C12.03 5 11.653 5.15658 11.3752 5.43448L0.433991 16.3776C-0.144664 16.9571 -0.144664 17.8958 0.433991 18.4745" fill="#CCCCCC"/>
<mask id="mask0_81_8547" style="mask-type:alpha" maskUnits="userSpaceOnUse" x="0" y="5" width="25" height="15">
<path fill-rule="evenodd" clip-rule="evenodd" d="M0.433991 18.4745V18.4745C1.01265 19.0533 1.95112 19.0533 2.53059 18.4745L12.4235 8.57993L22.4688 18.6278C23.0483 19.2074 23.9867 19.2074 24.5654 18.6278V18.6278C25.1449 18.0491 25.1449 17.1104 24.5654 16.5309L13.4718 5.43448C13.1939 5.15658 12.8161 5 12.4235 5C12.03 5 11.653 5.15658 11.3752 5.43448L0.433991 16.3776C-0.144664 16.9571 -0.144664 17.8958 0.433991 18.4745" fill="white"/>
</mask>
<g mask="url(#mask0_81_8547)">
<rect width="25" height="25" fill="#CCCCCC"/>
</g>
</svg>
